<svg width="69" height="49" viewBox="0 0 69 49" fill="none" xmlns="http://www.w3.org/2000/svg">
<path d="M2.32 32C2.05333 32 1.92 31.8667 1.92 31.6V11.072C1.92 10.8053 2.05333 10.672 2.32 10.672H11.168C11.424 10.672 11.6373 10.7573 11.808 10.928L15.008 14.128C15.1893 14.3093 15.28 14.5227 15.28 14.768V20.288C15.28 20.544 15.1893 20.7573 15.008 20.928L11.808 24.128C11.6373 24.3093 11.424 24.4 11.168 24.4H7.248V31.6C7.248 31.8667 7.11467 32 6.848 32H2.32ZM8.448 20.048C9.33333 20.048 9.936 19.872 10.256 19.52C10.5867 19.168 10.752 18.5013 10.752 17.52C10.752 16.5387 10.5867 15.872 10.256 15.52C9.936 15.168 9.33333 14.992 8.448 14.992C7.57333 14.992 6.97067 15.168 6.64 15.52C6.32 15.872 6.16 16.5387 6.16 17.52C6.16 18.5013 6.32 19.168 6.64 19.52C6.97067 19.872 7.57333 20.048 8.448 20.048ZM18.2575 32C17.9908 32 17.8575 31.8667 17.8575 31.6V11.072C17.8575 10.8053 17.9908 10.672 18.2575 10.672H29.4095C29.6762 10.672 29.8095 10.8053 29.8095 11.072V14.528C29.8095 14.7947 29.6762 14.928 29.4095 14.928H23.1855V19.472H28.8655C29.1322 19.472 29.2655 19.6053 29.2655 19.872V22.8C29.2655 23.0667 29.1322 23.2 28.8655 23.2H23.1855V27.728H29.4095C29.6762 27.728 29.8095 27.8613 29.8095 28.128V31.6C29.8095 31.8667 29.6762 32 29.4095 32H18.2575ZM33.9268 32C33.6601 32 33.5268 31.8667 33.5268 31.6V16.768C33.5268 16.6293 33.5801 16.4693 33.6868 16.288L37.4788 10.912C37.5961 10.752 37.7668 10.672 37.9908 10.672H43.2868C43.5214 10.672 43.6921 10.752 43.7988 10.912L47.6068 16.288C47.7134 16.4373 47.7668 16.5973 47.7668 16.768V31.6C47.7668 31.8667 47.6334 32 47.3668 32H42.8388C42.5721 32 42.4388 31.8667 42.4388 31.6V24.8H38.8708V31.6C38.8708 31.8667 38.7374 32 38.4708 32H33.9268ZM40.6468 21.36C41.6281 21.36 42.2894 21.1467 42.6308 20.72C42.9828 20.2827 43.1588 19.456 43.1588 18.24C43.1588 17.024 42.9828 16.2027 42.6308 15.776C42.2894 15.3387 41.6281 15.12 40.6468 15.12C39.6761 15.12 39.0148 15.3387 38.6628 15.776C38.3214 16.2027 38.1508 17.024 38.1508 18.24C38.1508 19.456 38.3214 20.2827 38.6628 20.72C39.0148 21.1467 39.6761 21.36 40.6468 21.36ZM51.9138 32C51.6471 32 51.5138 31.8667 51.5138 31.6V11.072C51.5138 10.8053 51.6471 10.672 51.9138 10.672H56.4418C56.7084 10.672 56.8418 10.8053 56.8418 11.072V19.552H58.8258L59.8818 15.568L60.8418 10.88C60.8631 10.816 60.9111 10.768 60.9858 10.736C61.0711 10.6933 61.1938 10.672 61.3538 10.672H65.9618C66.2284 10.672 66.3618 10.8053 66.3618 11.072V13.072C66.3618 13.1893 66.3458 13.3067 66.3138 13.424C66.2818 13.5307 66.2551 13.6267 66.2338 13.712L64.2818 18.4L62.9218 20.96L64.3138 23.488L66.6658 28.832C66.7084 28.9067 66.7404 28.9867 66.7618 29.072C66.7831 29.1573 66.7938 29.28 66.7938 29.44V31.6C66.7938 31.8667 66.6604 32 66.3938 32H61.6258C61.5511 32 61.4551 31.9893 61.3378 31.968C61.2311 31.936 61.1671 31.8667 61.1458 31.76L59.9618 26.688L59.0818 23.792H56.8418V31.6C56.8418 31.8667 56.7084 32 56.4418 32H51.9138ZM0.7975 46C0.705833 46 0.66 45.9542 0.66 45.8625V38.806C0.66 38.7143 0.705833 38.6685 0.7975 38.6685H3.839C3.927 38.6685 4.00033 38.6978 4.059 38.7565L5.159 39.8565C5.22133 39.9188 5.2525 39.9922 5.2525 40.0765V41.974C5.2525 42.062 5.22133 42.1353 5.159 42.194L4.059 43.294C4.00033 43.3563 3.927 43.3875 3.839 43.3875H2.4915V45.8625C2.4915 45.9542 2.44567 46 2.354 46H0.7975ZM2.904 41.8915C3.20833 41.8915 3.4155 41.831 3.5255 41.71C3.63917 41.589 3.696 41.3598 3.696 41.0225C3.696 40.6852 3.63917 40.456 3.5255 40.335C3.4155 40.214 3.20833 40.1535 2.904 40.1535C2.60333 40.1535 2.39617 40.214 2.2825 40.335C2.1725 40.456 2.1175 40.6852 2.1175 41.0225C2.1175 41.3598 2.1725 41.589 2.2825 41.71C2.39617 41.831 2.60333 41.8915 2.904 41.8915ZM6.27602 46C6.18435 46 6.13852 45.9542 6.13852 45.8625V38.806C6.13852 38.7143 6.18435 38.6685 6.27602 38.6685H10.1095C10.2012 38.6685 10.247 38.7143 10.247 38.806V39.994C10.247 40.0857 10.2012 40.1315 10.1095 40.1315H7.97002V41.6935H9.92252C10.0142 41.6935 10.06 41.7393 10.06 41.831V42.8375C10.06 42.9292 10.0142 42.975 9.92252 42.975H7.97002V44.5315H10.1095C10.2012 44.5315 10.247 44.5773 10.247 44.669V45.8625C10.247 45.9542 10.2012 46 10.1095 46H6.27602ZM11.7008 46C11.6092 46 11.5633 45.9542 11.5633 45.8625V38.806C11.5633 38.7143 11.6092 38.6685 11.7008 38.6685H14.6818C14.7698 38.6685 14.8432 38.6923 14.9018 38.74L16.1668 39.994C16.2072 40.0307 16.231 40.0618 16.2383 40.0875C16.2493 40.1132 16.2548 40.1553 16.2548 40.214V41.721C16.2548 41.7687 16.2365 41.8108 16.1998 41.8475L15.5948 42.436L15.0833 42.876L15.6883 43.679L16.3098 45.01C16.3245 45.043 16.3355 45.076 16.3428 45.109C16.3538 45.1383 16.3593 45.175 16.3593 45.219V45.8625C16.3593 45.9542 16.3135 46 16.2218 46H14.7698C14.6892 46 14.6342 45.9633 14.6048 45.89L13.7193 43.316H13.3068V45.8625C13.3068 45.9542 13.261 46 13.1693 46H11.7008ZM13.9118 41.9685C14.2162 41.9685 14.4233 41.9062 14.5333 41.7815C14.6433 41.6532 14.6983 41.4148 14.6983 41.0665C14.6983 40.7145 14.6433 40.4762 14.5333 40.3515C14.4233 40.2232 14.2162 40.159 13.9118 40.159C13.6112 40.159 13.404 40.2232 13.2903 40.3515C13.1767 40.4762 13.1198 40.7145 13.1198 41.0665C13.1198 41.4148 13.1767 41.6532 13.2903 41.7815C13.404 41.9062 13.6112 41.9685 13.9118 41.9685ZM17.3727 46C17.281 46 17.2352 45.9542 17.2352 45.8625V38.806C17.2352 38.7143 17.281 38.6685 17.3727 38.6685H21.1402C21.2319 38.6685 21.2777 38.7143 21.2777 38.806V39.994C21.2777 40.0857 21.2319 40.1315 21.1402 40.1315H19.0667V41.9685H20.8652C20.9569 41.9685 21.0027 42.0143 21.0027 42.106V43.294C21.0027 43.3857 20.9569 43.4315 20.8652 43.4315H19.0667V45.8625C19.0667 45.9542 19.0209 46 18.9292 46H17.3727ZM23.5686 46C23.4843 46 23.411 45.9688 23.3486 45.9065L22.2486 44.8065C22.1863 44.7478 22.1551 44.6745 22.1551 44.5865V40.0765C22.1551 39.9922 22.1863 39.9188 22.2486 39.8565L23.3486 38.7565C23.411 38.6978 23.4843 38.6685 23.5686 38.6685H25.7301C25.8181 38.6685 25.8915 38.6978 25.9501 38.7565L27.0501 39.8565C27.1125 39.9188 27.1436 39.9922 27.1436 40.0765V44.5865C27.1436 44.6745 27.1125 44.7478 27.0501 44.8065L25.9501 45.9065C25.8915 45.9688 25.8181 46 25.7301 46H23.5686ZM24.2176 44.5315H25.0811C25.2351 44.5315 25.3121 44.4288 25.3121 44.2235V40.445C25.3121 40.236 25.2351 40.1315 25.0811 40.1315H24.2176C24.0673 40.1315 23.9921 40.236 23.9921 40.445V44.2235C23.9921 44.4288 24.0673 44.5315 24.2176 44.5315ZM28.5983 46C28.5066 46 28.4608 45.9542 28.4608 45.8625V38.806C28.4608 38.7143 28.5066 38.6685 28.5983 38.6685H31.5793C31.6673 38.6685 31.7406 38.6923 31.7993 38.74L33.0643 39.994C33.1046 40.0307 33.1284 40.0618 33.1358 40.0875C33.1468 40.1132 33.1523 40.1553 33.1523 40.214V41.721C33.1523 41.7687 33.1339 41.8108 33.0973 41.8475L32.4923 42.436L31.9808 42.876L32.5858 43.679L33.2073 45.01C33.2219 45.043 33.2329 45.076 33.2403 45.109C33.2513 45.1383 33.2568 45.175 33.2568 45.219V45.8625C33.2568 45.9542 33.2109 46 33.1193 46H31.6673C31.5866 46 31.5316 45.9633 31.5023 45.89L30.6168 43.316H30.2043V45.8625C30.2043 45.9542 30.1584 46 30.0668 46H28.5983ZM30.8093 41.9685C31.1136 41.9685 31.3208 41.9062 31.4308 41.7815C31.5408 41.6532 31.5958 41.4148 31.5958 41.0665C31.5958 40.7145 31.5408 40.4762 31.4308 40.3515C31.3208 40.2232 31.1136 40.159 30.8093 40.159C30.5086 40.159 30.3014 40.2232 30.1878 40.3515C30.0741 40.4762 30.0173 40.7145 30.0173 41.0665C30.0173 41.4148 30.0741 41.6532 30.1878 41.7815C30.3014 41.9062 30.5086 41.9685 30.8093 41.9685ZM34.2702 46C34.1785 46 34.1327 45.9542 34.1327 45.8625V39.895C34.1327 39.8107 34.1638 39.7373 34.2262 39.675L35.1392 38.7565C35.2015 38.6978 35.2748 38.6685 35.3592 38.6685H36.6187C36.703 38.6685 36.7763 38.6978 36.8387 38.7565L37.7627 39.686H38.0212L38.9452 38.7565C39.0075 38.6978 39.0808 38.6685 39.1652 38.6685H40.4192C40.5072 38.6685 40.5805 38.6978 40.6392 38.7565L41.5577 39.675C41.62 39.7373 41.6512 39.8107 41.6512 39.895V45.8625C41.6512 45.9542 41.6053 46 41.5137 46H39.9517C39.86 46 39.8142 45.9542 39.8142 45.8625V40.1315H38.8077V45.8625C38.8077 45.9542 38.7618 46 38.6702 46H37.1137C37.022 46 36.9762 45.9542 36.9762 45.8625V40.1315H35.9642V45.8625C35.9642 45.9542 35.9183 46 35.8267 46H34.2702ZM43.0725 46C42.9808 46 42.935 45.9542 42.935 45.8625V40.764C42.935 40.7163 42.9533 40.6613 42.99 40.599L44.2935 38.751C44.3338 38.696 44.3925 38.6685 44.4695 38.6685H46.29C46.3706 38.6685 46.4293 38.696 46.466 38.751L47.775 40.599C47.8116 40.6503 47.83 40.7053 47.83 40.764V45.8625C47.83 45.9542 47.7841 46 47.6925 46H46.136C46.0443 46 45.9985 45.9542 45.9985 45.8625V43.525H44.772V45.8625C44.772 45.9542 44.7261 46 44.6345 46H43.0725ZM45.3825 42.3425C45.7198 42.3425 45.9471 42.2692 46.0645 42.1225C46.1855 41.9722 46.246 41.688 46.246 41.27C46.246 40.852 46.1855 40.5697 46.0645 40.423C45.9471 40.2727 45.7198 40.1975 45.3825 40.1975C45.0488 40.1975 44.8215 40.2727 44.7005 40.423C44.5831 40.5697 44.5245 40.852 44.5245 41.27C44.5245 41.688 44.5831 41.9722 44.7005 42.1225C44.8215 42.2692 45.0488 42.3425 45.3825 42.3425ZM49.2555 46C49.1638 46 49.118 45.9542 49.118 45.8625V38.806C49.118 38.7143 49.1638 38.6685 49.2555 38.6685H52.3795C52.4675 38.6685 52.5408 38.6978 52.5995 38.7565L53.6995 39.8565C53.7618 39.9188 53.793 39.9922 53.793 40.0765V45.8625C53.793 45.9542 53.7472 46 53.6555 46H52.099C52.0073 46 51.9615 45.9542 51.9615 45.8625V40.1315H50.9495V45.8625C50.9495 45.9542 50.9037 46 50.812 46H49.2555ZM57.1911 46C57.1068 46 57.0335 45.9762 56.9711 45.9285L56.0746 45.109L55.1671 43.9265C55.1268 43.8752 55.1011 43.844 55.0901 43.833C55.0791 43.8183 55.0736 43.7853 55.0736 43.734V40.929C55.0736 40.8777 55.0791 40.8447 55.0901 40.83C55.1048 40.8153 55.1305 40.7842 55.1671 40.7365L56.0086 39.6475L56.9711 38.74C57.0115 38.707 57.0426 38.6868 57.0646 38.6795C57.0903 38.6722 57.1325 38.6685 57.1911 38.6685H58.5496C58.6413 38.6685 58.6871 38.7143 58.6871 38.806V39.686C58.6871 39.7153 58.6835 39.7465 58.6761 39.7795C58.6725 39.8088 58.6541 39.8345 58.6211 39.8565L57.5871 40.566L56.9106 41.435V43.2335L57.5981 44.1025L58.6211 44.8065C58.6505 44.8248 58.6688 44.8468 58.6761 44.8725C58.6835 44.8982 58.6871 44.9257 58.6871 44.955V45.8625C58.6871 45.9542 58.6413 46 58.5496 46H57.1911ZM59.8903 46C59.7986 46 59.7528 45.9542 59.7528 45.8625V38.806C59.7528 38.7143 59.7986 38.6685 59.8903 38.6685H63.7238C63.8154 38.6685 63.8613 38.7143 63.8613 38.806V39.994C63.8613 40.0857 63.8154 40.1315 63.7238 40.1315H61.5843V41.6935H63.5368C63.6284 41.6935 63.6743 41.7393 63.6743 41.831V42.8375C63.6743 42.9292 63.6284 42.975 63.5368 42.975H61.5843V44.5315H63.7238C63.8154 44.5315 63.8613 44.5773 63.8613 44.669V45.8625C63.8613 45.9542 63.8154 46 63.7238 46H59.8903Z" fill="white"/>
</svg>
